# xmcd
#
# Track frame offsets: 
#        150
#        19280
#        37716
#        57506
#        78562
#        99022
#        119337
#        135672
#        150653
#        170644
#        188829
#
# Disc length: 2796 seconds
#
# Revision: 0
# Processed by: cddbd v1.5.2PL0 Copyright (c) Steve Scherf et al.
# Submitted via: ExactAudioCopy v0.99pb4
#
DISCID=860aea0b
DTITLE=Celtic Journey - Return to Eire
DYEAR=2007
DGENRE=Celtic
TTITLE0=Cockles and Mussels
TTITLE1=Black is the Colour
TTITLE2=Will You Go, Lassie, Go?
TTITLE3=Carrickfergus
TTITLE4=Fare Thee Well Love
TTITLE5=The Dawning of The Day
TTITLE6=Galway Bay
TTITLE7=The Water is Wide
TTITLE8=Spancil Hill
TTITLE9=The Sally Gardens
TTITLE10=Danny Boy
EXTD=
EXTT0=
EXTT1=
EXTT2=
EXTT3=
EXTT4=
EXTT5=
EXTT6=
EXTT7=
EXTT8=
EXTT9=
EXTT10=
PLAYORDER=
